<svg width="58" height="58" viewBox="0 0 58 58" fill="none" xmlns="http://www.w3.org/2000/svg">
<path fill-rule="evenodd" clip-rule="evenodd" d="M58 29C58 37.7908 54.0886 45.668 47.9112 50.9863C45.2968 46.3327 38.2646 43 30 43C21.0587 43 13.5599 46.9008 11.5372 52.1548C4.52915 46.8612 0 38.4595 0 29C0 12.9837 12.9837 0 29 0C45.0163 0 58 12.9837 58 29ZM30 45.5754C37.3691 45.5754 43.4906 48.949 44.7039 53.3842C40.1781 56.3049 34.787 58 29 58C23.9644 58 19.2286 56.7166 15.1018 54.4589C15.5457 49.5056 22.0461 45.5754 30 45.5754ZM29 40C34.5228 40 39 34.4036 39 27.5C39 20.5964 34.5228 15 29 15C23.4772 15 19 20.5964 19 27.5C19 34.4036 23.4772 40 29 40ZM29 37.3173C24.6624 37.3173 21.1461 32.922 21.1461 27.5C21.1461 22.078 24.6624 17.6827 29 17.6827C33.3376 17.6827 36.8539 22.078 36.8539 27.5C36.8539 32.922 33.3376 37.3173 29 37.3173Z" fill="#DAC0AC"/>
</svg>
