<svg width="24" height="24" viewBox="0 0 24 24" fill="none" xmlns="http://www.w3.org/2000/svg">
<path d="M9.71252 16.2125C7.89586 16.2125 6.35852 15.5832 5.10052 14.3245C3.84252 13.0659 3.21319 11.5285 3.21252 9.71252C3.21186 7.89652 3.84119 6.35919 5.10052 5.10052C6.35986 3.84186 7.89719 3.21252 9.71252 3.21252C11.5279 3.21252 13.0655 3.84186 14.3255 5.10052C15.5855 6.35919 16.2145 7.89652 16.2125 9.71252C16.2125 10.4459 16.0959 11.1375 15.8625 11.7875C15.6292 12.4375 15.3125 13.0125 14.9125 13.5125L20.5125 19.1125C20.6959 19.2959 20.7875 19.5292 20.7875 19.8125C20.7875 20.0959 20.6959 20.3292 20.5125 20.5125C20.3292 20.6959 20.0959 20.7875 19.8125 20.7875C19.5292 20.7875 19.2959 20.6959 19.1125 20.5125L13.5125 14.9125C13.0125 15.3125 12.4375 15.6292 11.7875 15.8625C11.1375 16.0959 10.4459 16.2125 9.71252 16.2125ZM9.71252 14.2125C10.9625 14.2125 12.0252 13.7752 12.9005 12.9005C13.7759 12.0259 14.2132 10.9632 14.2125 9.71252C14.2119 8.46186 13.7745 7.39952 12.9005 6.52552C12.0265 5.65152 10.9639 5.21386 9.71252 5.21252C8.46119 5.21119 7.39886 5.64886 6.52553 6.52552C5.65219 7.40219 5.21452 8.46452 5.21252 9.71252C5.21052 10.9605 5.64819 12.0232 6.52553 12.9005C7.40286 13.7779 8.46519 14.2152 9.71252 14.2125Z" fill="#CFCFCF"/>
</svg>
