<svg width="245" height="57" viewBox="0 0 245 57" fill="none" xmlns="http://www.w3.org/2000/svg">
<path d="M0.4 21.2C0.133333 21.2 0 21.056 0 20.768V15.68C0 15.392 0.133333 15.248 0.4 15.248H5.52C5.78667 15.248 5.92 15.392 5.92 15.68V20.768C5.92 21.056 5.78667 21.2 5.52 21.2H0.4Z" fill="white"/>
<path d="M9.39675 21.328C9.13008 21.328 8.99675 21.1947 8.99675 20.928V0.4C8.99675 0.133333 9.13008 0 9.39675 0H19.1567C19.4127 0 19.6261 0.0853335 19.7968 0.256001L22.9967 3.456C23.1781 3.63733 23.2687 3.85067 23.2687 4.096V17.216C23.2687 17.472 23.1781 17.6853 22.9967 17.856L19.7968 21.056C19.6261 21.2373 19.4127 21.328 19.1567 21.328H9.39675ZM14.3408 17.056H17.2688C17.7168 17.056 17.9408 16.7573 17.9408 16.16V5.168C17.9408 4.56 17.7168 4.256 17.2688 4.256H14.3408V17.056Z" fill="#FC7A17"/>
<path d="M31.0958 21.328C30.8504 21.328 30.6371 21.2373 30.4557 21.056L27.2558 17.856C27.0744 17.6853 26.9837 17.472 26.9837 17.216V4.096C26.9837 3.85067 27.0744 3.63733 27.2558 3.456L30.4557 0.256001C30.6371 0.0853335 30.8504 0 31.0958 0H37.3838C37.6398 0 37.8531 0.0853335 38.0238 0.256001L41.2238 3.456C41.4051 3.63733 41.4958 3.85067 41.4958 4.096V17.216C41.4958 17.472 41.4051 17.6853 41.2238 17.856L38.0238 21.056C37.8531 21.2373 37.6398 21.328 37.3838 21.328H31.0958ZM32.9837 17.056H35.4958C35.9438 17.056 36.1678 16.7573 36.1678 16.16V5.168C36.1678 4.56 35.9438 4.256 35.4958 4.256H32.9837C32.5464 4.256 32.3278 4.56 32.3278 5.168V16.16C32.3278 16.7573 32.5464 17.056 32.9837 17.056Z" fill="#FC7A17"/>
<path d="M48.9275 21.328C48.6608 21.328 48.5275 21.1947 48.5275 20.928V4.256H45.7275C45.4608 4.256 45.3275 4.12267 45.3275 3.856V0.4C45.3275 0.133333 45.4608 0 45.7275 0H56.6555C56.9222 0 57.0555 0.133333 57.0555 0.4V3.856C57.0555 4.12267 56.9222 4.256 56.6555 4.256H53.8555V20.928C53.8555 21.1947 53.7222 21.328 53.4555 21.328H48.9275Z" fill="#FC7A17"/>
<path d="M64.49 21.328C64.2233 21.328 64.09 21.1947 64.09 20.928V4.256H61.29C61.0233 4.256 60.89 4.12267 60.89 3.856V0.4C60.89 0.133333 61.0233 0 61.29 0H72.218C72.4847 0 72.618 0.133333 72.618 0.4V3.856C72.618 4.12267 72.4847 4.256 72.218 4.256H69.418V20.928C69.418 21.1947 69.2847 21.328 69.018 21.328H64.49Z" fill="#FC7A17"/>
<path d="M76.7405 21.328C76.4738 21.328 76.3405 21.1947 76.3405 20.928V6.096C76.3405 5.95733 76.3938 5.79733 76.5005 5.616L80.2925 0.24C80.4098 0.0799999 80.5805 0 80.8045 0H86.1005C86.3352 0 86.5058 0.0799999 86.6125 0.24L90.4205 5.616C90.5272 5.76533 90.5805 5.92533 90.5805 6.096V20.928C90.5805 21.1947 90.4472 21.328 90.1805 21.328H85.6525C85.3858 21.328 85.2525 21.1947 85.2525 20.928V14.128H81.6845V20.928C81.6845 21.1947 81.5512 21.328 81.2845 21.328H76.7405ZM83.4605 10.688C84.4418 10.688 85.1032 10.4747 85.4445 10.048C85.7965 9.61067 85.9725 8.784 85.9725 7.568C85.9725 6.352 85.7965 5.53067 85.4445 5.104C85.1032 4.66667 84.4418 4.448 83.4605 4.448C82.4898 4.448 81.8285 4.66667 81.4765 5.104C81.1352 5.53067 80.9645 6.352 80.9645 7.568C80.9645 8.784 81.1352 9.61067 81.4765 10.048C81.8285 10.4747 82.4898 10.688 83.4605 10.688Z" fill="#FC7A17"/>
<path d="M108.084 0.600725L93.0836 56.328H88.1745L103.175 0.600725H108.084Z" fill="black"/>
<path d="M122.993 56.0325C119.614 56.0325 116.705 55.2674 114.265 53.7371C111.841 52.1916 109.978 50.0628 108.675 47.3507C107.372 44.6386 106.72 41.5325 106.72 38.0325C106.72 34.4871 107.387 31.3583 108.72 28.6462C110.053 25.9189 111.932 23.7901 114.356 22.2598C116.781 20.7295 119.637 19.9644 122.925 19.9644C125.576 19.9644 127.94 20.4568 130.015 21.4416C132.091 22.4113 133.765 23.775 135.038 25.5325C136.326 27.2901 137.091 29.3432 137.334 31.6916H130.72C130.356 30.0553 129.523 28.6462 128.22 27.4644C126.932 26.2825 125.205 25.6916 123.038 25.6916C121.144 25.6916 119.485 26.1916 118.061 27.1916C116.652 28.1765 115.553 29.5856 114.765 31.4189C113.978 33.2371 113.584 35.3886 113.584 37.8735C113.584 40.4189 113.97 42.6159 114.743 44.4644C115.515 46.3128 116.606 47.7447 118.015 48.7598C119.44 49.775 121.114 50.2825 123.038 50.2825C124.326 50.2825 125.493 50.0477 126.538 49.578C127.599 49.0932 128.485 48.4038 129.197 47.5098C129.925 46.6159 130.432 45.5401 130.72 44.2825H137.334C137.091 46.5401 136.356 48.5553 135.129 50.328C133.902 52.1007 132.258 53.4947 130.197 54.5098C128.152 55.525 125.75 56.0325 122.993 56.0325Z" fill="white"/>
<path d="M154.76 56.1007C152.548 56.1007 150.548 55.6916 148.76 54.8735C146.972 54.0401 145.555 52.8356 144.51 51.2598C143.479 49.6841 142.964 47.7522 142.964 45.4644C142.964 43.4947 143.343 41.8735 144.101 40.6007C144.858 39.328 145.881 38.3204 147.169 37.578C148.457 36.8356 149.896 36.275 151.487 35.8962C153.078 35.5174 154.699 35.2295 156.351 35.0325C158.442 34.7901 160.139 34.5931 161.442 34.4416C162.745 34.275 163.692 34.0098 164.283 33.6462C164.873 33.2825 165.169 32.6916 165.169 31.8735V31.7144C165.169 29.7295 164.608 28.1916 163.487 27.1007C162.381 26.0098 160.729 25.4644 158.533 25.4644C156.245 25.4644 154.442 25.9719 153.123 26.9871C151.82 27.9871 150.919 29.1007 150.419 30.328L144.033 28.8735C144.79 26.7522 145.896 25.0401 147.351 23.7371C148.82 22.4189 150.51 21.4644 152.419 20.8735C154.328 20.2674 156.336 19.9644 158.442 19.9644C159.836 19.9644 161.313 20.131 162.873 20.4644C164.449 20.7825 165.919 21.3735 167.283 22.2371C168.661 23.1007 169.79 24.3356 170.669 25.9416C171.548 27.5325 171.987 29.6007 171.987 32.1462V55.328H165.351V50.5553H165.078C164.639 51.4341 163.979 52.2977 163.101 53.1462C162.222 53.9947 161.093 54.6992 159.714 55.2598C158.336 55.8204 156.684 56.1007 154.76 56.1007ZM156.237 50.6462C158.116 50.6462 159.722 50.275 161.055 49.5325C162.404 48.7901 163.426 47.8204 164.123 46.6235C164.836 45.4113 165.192 44.1159 165.192 42.7371V38.2371C164.949 38.4795 164.479 38.7068 163.783 38.9189C163.101 39.1159 162.32 39.2901 161.442 39.4416C160.563 39.578 159.707 39.7068 158.873 39.828C158.04 39.9341 157.343 40.025 156.783 40.1007C155.464 40.2674 154.26 40.5477 153.169 40.9416C152.093 41.3356 151.229 41.9038 150.578 42.6462C149.942 43.3735 149.623 44.3432 149.623 45.5553C149.623 47.2371 150.245 48.5098 151.487 49.3735C152.729 50.2219 154.313 50.6462 156.237 50.6462Z" fill="white"/>
<path d="M207.197 28.9416L201.038 30.0325C200.781 29.2447 200.372 28.4947 199.811 27.7825C199.265 27.0704 198.523 26.4871 197.584 26.0325C196.644 25.578 195.47 25.3507 194.061 25.3507C192.137 25.3507 190.531 25.7825 189.243 26.6462C187.955 27.4947 187.311 28.5932 187.311 29.9416C187.311 31.1083 187.743 32.0477 188.606 32.7598C189.47 33.4719 190.864 34.0553 192.788 34.5098L198.334 35.7825C201.546 36.525 203.94 37.6689 205.515 39.2144C207.091 40.7598 207.879 42.7674 207.879 45.2371C207.879 47.328 207.273 49.1916 206.061 50.828C204.864 52.4492 203.19 53.7219 201.038 54.6462C198.902 55.5704 196.425 56.0325 193.606 56.0325C189.697 56.0325 186.508 55.1992 184.038 53.5325C181.568 51.8507 180.053 49.4644 179.493 46.3735L186.061 45.3735C186.47 47.0856 187.311 48.381 188.584 49.2598C189.856 50.1235 191.515 50.5553 193.561 50.5553C195.788 50.5553 197.568 50.0932 198.902 49.1689C200.235 48.2295 200.902 47.0856 200.902 45.7371C200.902 44.6462 200.493 43.7295 199.675 42.9871C198.872 42.2447 197.637 41.6841 195.97 41.3053L190.061 40.0098C186.803 39.2674 184.394 38.0856 182.834 36.4644C181.288 34.8431 180.515 32.7901 180.515 30.3053C180.515 28.2447 181.091 26.4416 182.243 24.8962C183.394 23.3507 184.985 22.1462 187.015 21.2825C189.046 20.4038 191.372 19.9644 193.993 19.9644C197.765 19.9644 200.735 20.7825 202.902 22.4189C205.068 24.0401 206.5 26.2144 207.197 28.9416Z" fill="white"/>
<path d="M222.146 34.6007V55.328H215.351V8.78255H222.055V26.1007H222.487C223.305 24.2219 224.555 22.7295 226.237 21.6235C227.919 20.5174 230.116 19.9644 232.828 19.9644C235.222 19.9644 237.313 20.4568 239.101 21.4416C240.904 22.4265 242.298 23.8962 243.283 25.8507C244.283 27.7901 244.783 30.2144 244.783 33.1235V55.328H237.987V33.9416C237.987 31.381 237.328 29.3962 236.01 27.9871C234.692 26.5628 232.858 25.8507 230.51 25.8507C228.904 25.8507 227.464 26.1916 226.192 26.8735C224.934 27.5553 223.942 28.5553 223.214 29.8735C222.502 31.1765 222.146 32.7522 222.146 34.6007Z" fill="white"/>
</svg>
